<?xml version="1.0" encoding="UTF-8"?>
<svg xmlns="http://www.w3.org/2000/svg" xmlns:xlink="http://www.w3.org/1999/xlink" width="35px" height="35px" viewBox="0 0 35 35" version="1.1">
<defs>
<filter id="alpha" filterUnits="objectBoundingBox" x="0%" y="0%" width="100%" height="100%">
  <feColorMatrix type="matrix" in="SourceGraphic" values="0 0 0 0 1 0 0 0 0 1 0 0 0 0 1 0 0 0 1 0"/>
</filter>
<mask id="mask0">
  <g filter="url(#alpha)">
<rect x="0" y="0" width="35" height="35" style="fill:rgb(0%,0%,0%);fill-opacity:0.101961;stroke:none;"/>
  </g>
</mask>
<clipPath id="clip1">
  <rect x="0" y="0" width="35" height="35"/>
</clipPath>
<g id="surface5" clip-path="url(#clip1)">
<path style=" stroke:none;fill-rule:nonzero;fill:rgb(0%,0%,0%);fill-opacity:1;" d="M 11.699219 8.898438 C 12.738281 4.664062 16.167969 1.644531 20.199219 0.921875 C 19.335938 0.699219 18.433594 0.578125 17.5 0.578125 C 11.597656 0.578125 6.8125 5.367188 6.8125 11.269531 C 6.8125 16.140625 10.238281 24.964844 15.746094 32.242188 C 11.839844 23.65625 10.496094 13.789062 11.699219 8.898438 Z M 11.699219 8.898438 "/>
</g>
</defs>
<g id="surface1">
<path style=" stroke:none;fill-rule:nonzero;fill:rgb(100%,39.215686%,39.607843%);fill-opacity:1;" d="M 17.5 0.578125 C 11.597656 0.578125 6.8125 5.367188 6.8125 11.269531 C 6.8125 16.640625 10.972656 26.816406 17.5 34.421875 C 24.027344 26.816406 28.1875 16.640625 28.1875 11.269531 C 28.1875 5.367188 23.402344 0.578125 17.5 0.578125 Z M 17.5 0.578125 "/>
<use xlink:href="#surface5" mask="url(#mask0)"/>
<path style=" stroke:none;fill-rule:nonzero;fill:rgb(100%,100%,100%);fill-opacity:1;" d="M 17.5 16.160156 C 14.804688 16.160156 12.609375 13.964844 12.609375 11.265625 C 12.609375 8.570312 14.804688 6.375 17.5 6.375 C 20.199219 6.375 22.390625 8.570312 22.390625 11.269531 C 22.390625 13.964844 20.199219 16.160156 17.5 16.160156 Z M 17.5 16.160156 "/>
<path style=" stroke:none;fill-rule:nonzero;fill:rgb(0%,0%,0%);fill-opacity:1;" d="M 17.5 35 C 17.332031 35 17.171875 34.925781 17.058594 34.796875 C 10.28125 26.898438 6.230469 16.632812 6.230469 11.269531 C 6.230469 8.855469 6.984375 6.550781 8.410156 4.609375 C 8.601562 4.351562 8.960938 4.292969 9.222656 4.484375 C 9.480469 4.671875 9.535156 5.035156 9.34375 5.292969 C 8.066406 7.035156 7.390625 9.101562 7.390625 11.269531 C 7.390625 13.882812 8.429688 17.710938 10.238281 21.769531 C 12.113281 25.976562 14.675781 30.121094 17.5 33.523438 C 18.601562 32.199219 19.660156 30.761719 20.660156 29.246094 C 20.835938 28.980469 21.195312 28.90625 21.464844 29.082031 C 21.730469 29.257812 21.804688 29.617188 21.628906 29.886719 C 20.46875 31.644531 19.230469 33.296875 17.941406 34.796875 C 17.828125 34.925781 17.667969 35 17.5 35 Z M 22.410156 28.132812 C 22.308594 28.132812 22.207031 28.105469 22.113281 28.050781 C 21.835938 27.886719 21.746094 27.53125 21.910156 27.253906 C 25.371094 21.453125 27.609375 15.179688 27.609375 11.269531 C 27.609375 5.695312 23.074219 1.160156 17.5 1.160156 C 15.042969 1.160156 12.671875 2.054688 10.828125 3.675781 C 10.585938 3.886719 10.21875 3.863281 10.007812 3.621094 C 9.796875 3.382812 9.820312 3.015625 10.0625 2.804688 C 12.117188 0.996094 14.761719 0 17.5 0 C 23.714844 0 28.769531 5.054688 28.769531 11.269531 C 28.769531 15.375 26.46875 21.882812 22.90625 27.847656 C 22.796875 28.03125 22.605469 28.132812 22.410156 28.132812 Z M 17.5 16.738281 C 14.484375 16.738281 12.027344 14.285156 12.027344 11.265625 C 12.027344 8.25 14.484375 5.796875 17.5 5.796875 C 20.09375 5.796875 22.351562 7.640625 22.863281 10.183594 C 22.925781 10.496094 22.722656 10.804688 22.410156 10.867188 C 22.097656 10.929688 21.789062 10.726562 21.726562 10.414062 C 21.324219 8.410156 19.542969 6.957031 17.5 6.957031 C 15.121094 6.957031 13.1875 8.890625 13.1875 11.265625 C 13.1875 13.644531 15.121094 15.578125 17.5 15.578125 C 19.410156 15.578125 21.117188 14.296875 21.644531 12.457031 C 21.734375 12.148438 22.054688 11.972656 22.363281 12.058594 C 22.667969 12.148438 22.847656 12.46875 22.757812 12.777344 C 22.085938 15.109375 19.925781 16.738281 17.5 16.738281 Z M 17.5 16.738281 "/>
</g>
</svg>
